<svg xmlns="http://www.w3.org/2000/svg" width="20" height="20" viewBox="0 0 71 55"><path fill="#fff" d="M60.1 4.5A58.3 58.3 0 0 0 46.9 0c-.3.5-.6 1.1-.8 1.6a56 56 0 0 0-17 0c-.2-.5-.5-1.1-.8-1.6A58.3 58.3 0 0 0 10.9 4.5a61.4 61.4 0 0 0-8.4 47.2A58.5 58.5 0 0 0 20 54.6c1.6-2.2 3-4.5 4.2-7a41.8 41.8 0 0 1-6.6-3.2c.6-.4 1.1-.9 1.6-1.4a44.3 44.3 0 0 0 36.8 0c.5.5 1 1 1.6 1.4a41.8 41.8 0 0 1-6.6 3.2c1.2 2.5 2.6 4.9 4.2 7a58.5 58.5 0 0 0 17.5-2.9 61.4 61.4 0 0 0-8.4-47.2ZM23.1 37.3c-3.5 0-6.4-3.1-6.4-6.8s2.8-6.8 6.4-6.8c3.6 0 6.5 3.1 6.4 6.8 0 3.7-2.8 6.8-6.4 6.8Zm24.9 0c-3.5 0-6.4-3.1-6.4-6.8s2.8-6.8 6.4-6.8c3.6 0 6.5 3.1 6.4 6.8 0 3.7-2.8 6.8-6.4 6.8Z"></path></svg>
