<svg xmlns="http://www.w3.org/2000/svg" width="20" height="20" viewBox="0 0 48 48"><path fill="#fbc02d" d="M43.6 20.5h-1.6v-.1H24v7.1h11.3c-1.6 4.5-5.8 7.5-11.3 7.5-6.6 0-12-5.4-12-12s5.4-12 12-12c3 0 5.7 1.1 7.8 3l5.6-5.6C34.4 5.5 29.5 3.5 24 3.5 12.4 3.5 3.5 12.4 3.5 24S12.4 44.5 24 44.5c11.4 0 20.5-9 20.5-20.5 0-1.6-.2-3.1-.5-4.5z"></path><path fill="#e53935" d="M6.3 14.6l5.9 4.3c1.6-3.6 4.5-6.5 8.2-8.2l-5.9-4.3c-3.4 2.1-6.2 5-8.2 8.2z"></path><path fill="#4caf50" d="M24 44.5c4.5 0 8.7-1.6 12-4.2l-5.6-4.7c-2.2 1.5-5 2.4-8 2.4-5.5 0-10.2-3.5-11.8-8.3l-5.9 4.6c3 5.9 9.1 9.9 15.3 9.9z"></path><path fill="#1565c0" d="M43.6 20.5H42v-.1H24v7.1h11.3c-.8 2.3-2.2 4.2-4 5.6l.1.1 5.6 4.7c-.4.4 6.2-5.7 6.2-13.4 0-1.6-.2-3.1-.5-4.5z"></path></svg>
